<svg width="185" height="120" viewBox="0 0 185 120" fill="none" xmlns="http://www.w3.org/2000/svg">
<g clip-path="url(#clip0)">
<path d="M141.663 113.663L151.29 99.347L141.683 115.203L141.703 116.814C141 116.819 140.304 116.808 139.615 116.779L140.093 96.0718L140.08 95.912L140.097 95.8812L140.143 93.9245L129.601 78.6181L140.131 92.46L140.168 92.8736L140.529 77.2286L131.423 61.3594L140.554 74.4802L140.459 42.0678L140.459 41.96L140.462 42.0661L141.067 67.6114L149.366 57.2349L141.094 69.8121L141.275 83.8061L148.912 70.1484L141.303 85.8635L141.404 93.6449L152.51 74.6199L141.438 96.3595L141.663 113.663Z" fill="#E6E6E6"/>
<path d="M174.061 114.114L183.688 99.7979L174.081 115.654L174.101 117.265C173.398 117.27 172.702 117.259 172.013 117.23L172.491 96.5227L172.478 96.3629L172.495 96.3321L172.541 94.3754L161.999 79.069L172.529 92.9109L172.566 93.3245L172.927 77.6795L163.821 61.8104L172.953 74.9311L172.857 42.5188L172.857 42.4109L172.861 42.517L173.465 68.0623L181.764 57.6858L173.492 70.263L173.673 84.257L181.31 70.5994L173.701 86.3144L173.802 94.0958L184.908 75.0708L173.836 96.8104L174.061 114.114Z" fill="#E6E6E6"/>
<path d="M76.671 0H19.0637V77.9209H76.671V0Z" fill="#E6E6E6"/>
<path d="M74.6411 2.74585H21.0938V75.1751H74.6411V2.74585Z" fill="white"/>
<path d="M67.6027 15.4497H28.3037C27.9854 15.4493 27.6802 15.3225 27.4553 15.0973C27.2303 14.872 27.104 14.5667 27.104 14.2484C27.104 13.9301 27.2303 13.6248 27.4553 13.3995C27.6802 13.1743 27.9854 13.0475 28.3037 13.0471H67.6027C67.7606 13.0469 67.917 13.0778 68.0629 13.1381C68.2088 13.1984 68.3415 13.2868 68.4532 13.3984C68.5649 13.51 68.6535 13.6425 68.714 13.7883C68.7745 13.9342 68.8056 14.0905 68.8056 14.2484C68.8056 14.4063 68.7745 14.5626 68.714 14.7085C68.6535 14.8543 68.5649 14.9868 68.4532 15.0984C68.3415 15.21 68.2088 15.2984 68.0629 15.3587C67.917 15.419 67.7606 15.4499 67.6027 15.4497Z" fill="#E6E6E6"/>
<path d="M67.6027 27.8056H28.3037C27.9854 27.8052 27.6802 27.6785 27.4553 27.4532C27.2303 27.228 27.104 26.9227 27.104 26.6044C27.104 26.286 27.2303 25.9807 27.4553 25.7555C27.6802 25.5302 27.9854 25.4035 28.3037 25.4031H67.6027C67.7606 25.4029 67.917 25.4338 68.0629 25.4941C68.2088 25.5543 68.3415 25.6428 68.4532 25.7544C68.5649 25.8659 68.6535 25.9984 68.714 26.1443C68.7745 26.2901 68.8056 26.4465 68.8056 26.6044C68.8056 26.7622 68.7745 26.9186 68.714 27.0644C68.6535 27.2103 68.5649 27.3428 68.4532 27.4543C68.3415 27.5659 68.2088 27.6544 68.0629 27.7146C67.917 27.7749 67.7606 27.8058 67.6027 27.8056Z" fill="#E6E6E6"/>
<path d="M67.6027 40.1617H28.3037C27.9854 40.1613 27.6802 40.0346 27.4553 39.8093C27.2303 39.5841 27.104 39.2788 27.104 38.9604C27.104 38.6421 27.2303 38.3368 27.4553 38.1116C27.6802 37.8863 27.9854 37.7596 28.3037 37.7592H67.6027C67.7606 37.7589 67.917 37.7899 68.0629 37.8501C68.2088 37.9104 68.3415 37.9989 68.4532 38.1104C68.5649 38.222 68.6535 38.3545 68.714 38.5004C68.7745 38.6462 68.8056 38.8026 68.8056 38.9604C68.8056 39.1183 68.7745 39.2747 68.714 39.4205C68.6535 39.5664 68.5649 39.6989 68.4532 39.8104C68.3415 39.922 68.2088 40.0105 68.0629 40.0707C67.917 40.131 67.7606 40.1619 67.6027 40.1617Z" fill="#E6E6E6"/>
<path d="M67.6027 52.5178H28.3037C27.9854 52.5174 27.6802 52.3906 27.4553 52.1654C27.2303 51.9401 27.104 51.6348 27.104 51.3165C27.104 50.9982 27.2303 50.6929 27.4553 50.4676C27.6802 50.2424 27.9854 50.1157 28.3037 50.1152H67.6027C67.7606 50.115 67.917 50.1459 68.0629 50.2062C68.2088 50.2665 68.3415 50.355 68.4532 50.4665C68.5649 50.5781 68.6535 50.7106 68.714 50.8564C68.7745 51.0023 68.8056 51.1586 68.8056 51.3165C68.8056 51.4744 68.7745 51.6307 68.714 51.7766C68.6535 51.9224 68.5649 52.0549 68.4532 52.1665C68.3415 52.2781 68.2088 52.3665 68.0629 52.4268C67.917 52.4871 67.7606 52.518 67.6027 52.5178Z" fill="#E6E6E6"/>
<path d="M67.6027 64.8738H28.3037C27.9854 64.8733 27.6802 64.7466 27.4553 64.5214C27.2303 64.2961 27.104 63.9908 27.104 63.6725C27.104 63.3541 27.2303 63.0488 27.4553 62.8236C27.6802 62.5984 27.9854 62.4716 28.3037 62.4712H67.6027C67.7606 62.471 67.917 62.5019 68.0629 62.5622C68.2088 62.6225 68.3415 62.7109 68.4532 62.8225C68.5649 62.934 68.6535 63.0665 68.714 63.2124C68.7745 63.3582 68.8056 63.5146 68.8056 63.6725C68.8056 63.8304 68.7745 63.9867 68.714 64.1326C68.6535 64.2784 68.5649 64.4109 68.4532 64.5225C68.3415 64.634 68.2088 64.7225 68.0629 64.7828C67.917 64.843 67.7606 64.874 67.6027 64.8738Z" fill="#E6E6E6"/>
<path d="M60.7383 15.4497H28.1322C27.9743 15.4499 27.8179 15.419 27.672 15.3587C27.5261 15.2984 27.3934 15.21 27.2817 15.0984C27.17 14.9868 27.0814 14.8543 27.0209 14.7085C26.9604 14.5626 26.9293 14.4063 26.9293 14.2484C26.9293 14.0905 26.9604 13.9342 27.0209 13.7883C27.0814 13.6425 27.17 13.51 27.2817 13.3984C27.3934 13.2868 27.5261 13.1984 27.672 13.1381C27.8179 13.0778 27.9743 13.0469 28.1322 13.0471H60.7383C61.0567 13.0475 61.3618 13.1743 61.5868 13.3995C61.8117 13.6248 61.938 13.9301 61.938 14.2484C61.938 14.5667 61.8117 14.872 61.5868 15.0973C61.3618 15.3225 61.0567 15.4493 60.7383 15.4497Z" fill="#6C63FF"/>
<path d="M50.6131 27.8056H28.1321C27.8135 27.8056 27.5079 27.6791 27.2826 27.4538C27.0573 27.2285 26.9308 26.923 26.9308 26.6044C26.9308 26.2858 27.0573 25.9802 27.2826 25.7549C27.5079 25.5296 27.8135 25.4031 28.1321 25.4031H50.6131C50.771 25.4029 50.9274 25.4338 51.0733 25.4941C51.2193 25.5543 51.3519 25.6428 51.4636 25.7544C51.5753 25.8659 51.6639 25.9984 51.7244 26.1443C51.7849 26.2901 51.816 26.4465 51.816 26.6044C51.816 26.7622 51.7849 26.9186 51.7244 27.0644C51.6639 27.2103 51.5753 27.3428 51.4636 27.4543C51.3519 27.5659 51.2193 27.6544 51.0733 27.7146C50.9274 27.7749 50.771 27.8058 50.6131 27.8056Z" fill="#6C63FF"/>
<path d="M38.2572 40.1617H28.1322C27.9743 40.1619 27.8179 40.131 27.672 40.0707C27.5261 40.0105 27.3934 39.922 27.2817 39.8104C27.17 39.6989 27.0814 39.5664 27.0209 39.4205C26.9604 39.2747 26.9293 39.1183 26.9293 38.9604C26.9293 38.8026 26.9604 38.6462 27.0209 38.5004C27.0814 38.3545 27.17 38.222 27.2817 38.1104C27.3934 37.9989 27.5261 37.9104 27.672 37.8501C27.8179 37.7899 27.9743 37.7589 28.1322 37.7592H38.2572C38.5756 37.7596 38.8807 37.8863 39.1057 38.1116C39.3306 38.3368 39.457 38.6421 39.457 38.9604C39.457 39.2788 39.3306 39.5841 39.1057 39.8093C38.8807 40.0346 38.5756 40.1613 38.2572 40.1617Z" fill="#6C63FF"/>
<path d="M63.8272 52.5178H28.1321C27.8135 52.5178 27.5079 52.3912 27.2826 52.1659C27.0573 51.9407 26.9308 51.6351 26.9308 51.3165C26.9308 50.9979 27.0573 50.6924 27.2826 50.4671C27.5079 50.2418 27.8135 50.1152 28.1321 50.1152H63.8272C64.1458 50.1152 64.4514 50.2418 64.6767 50.4671C64.902 50.6924 65.0285 50.9979 65.0285 51.3165C65.0285 51.6351 64.902 51.9407 64.6767 52.1659C64.4514 52.3912 64.1458 52.5178 63.8272 52.5178Z" fill="#6C63FF"/>
<path d="M55.9332 64.8738H28.1322C27.9743 64.874 27.8179 64.843 27.672 64.7828C27.5261 64.7225 27.3934 64.634 27.2817 64.5225C27.17 64.4109 27.0814 64.2784 27.0209 64.1326C26.9604 63.9867 26.9293 63.8304 26.9293 63.6725C26.9293 63.5146 26.9604 63.3582 27.0209 63.2124C27.0814 63.0665 27.17 62.934 27.2817 62.8225C27.3934 62.7109 27.5261 62.6225 27.672 62.5622C27.8179 62.5019 27.9743 62.471 28.1322 62.4712H55.9332C56.0911 62.471 56.2475 62.5019 56.3934 62.5622C56.5393 62.6225 56.672 62.7109 56.7837 62.8225C56.8954 62.934 56.984 63.0665 57.0445 63.2124C57.105 63.3582 57.1361 63.5146 57.1361 63.6725C57.1361 63.8304 57.105 63.9867 57.0445 64.1326C56.984 64.2784 56.8954 64.4109 56.7837 64.5225C56.672 64.634 56.5393 64.7225 56.3934 64.7828C56.2475 64.843 56.0911 64.874 55.9332 64.8738Z" fill="#6C63FF"/>
<path d="M184.007 116.815H0V117.23H184.007V116.815Z" fill="#3F3D56"/>
<path d="M104.848 56.136C104.848 56.136 103.546 46.5847 101.375 49.1896C99.2042 51.7945 101.375 55.7018 101.375 55.7018L103.112 57.8726L104.848 56.5701V56.136Z" fill="#9F616A"/>
<path d="M110.058 59.175C110.058 59.175 105.716 54.3993 104.848 55.2676C103.98 56.1359 101.375 56.5701 101.809 58.3067C102.243 60.0432 111.36 65.6872 111.36 65.6872L110.058 59.175Z" fill="#6C63FF"/>
<path opacity="0.1" d="M110.058 59.175C110.058 59.175 105.716 54.3993 104.848 55.2676C103.98 56.1359 101.375 56.5701 101.809 58.3067C102.243 60.0432 111.36 65.6872 111.36 65.6872L110.058 59.175Z" fill="black"/>
<path d="M134.804 58.7408V62.214C134.804 62.214 135.238 70.0287 132.634 69.5945C130.029 69.1604 131.331 62.6482 131.331 62.6482L131.765 58.7409L134.804 58.7408Z" fill="#9F616A"/>
<path d="M133.502 83.9214C133.502 83.9214 137.409 89.9995 138.712 90.4336C140.014 90.8677 146.96 94.7751 147.829 98.6824L153.907 106.497L150.868 110.404C150.868 110.404 136.975 95.6434 133.068 94.3409C129.16 93.0385 125.253 86.5263 125.253 86.5263L133.502 83.9214Z" fill="#9F616A"/>
<path d="M102.677 73.936C102.677 73.936 94.4286 75.2385 95.731 80.4482C97.0335 85.658 109.624 96.5117 109.624 96.5117L110.058 99.1166L114.833 99.9849L117.004 97.8141L116.57 96.5117C116.57 96.5117 111.36 91.7361 110.926 89.9995C110.492 88.2629 105.716 81.3166 103.546 80.8824L106.585 79.1458L102.677 73.936Z" fill="#9F616A"/>
<path d="M152.604 106.497C152.604 106.497 150.868 103.892 153.473 104.326C156.077 104.761 157.814 105.195 157.814 106.931C157.814 108.668 155.643 120.824 153.038 119.956C150.434 119.087 152.604 115.18 152.604 115.18C152.604 115.18 151.302 111.707 150.434 111.273C149.565 110.839 149.565 108.668 150.434 108.668C151.302 108.668 153.038 107.365 152.604 106.497Z" fill="#2F2E41"/>
<path d="M115.702 96.9459C115.702 96.9459 115.702 94.7751 117.438 96.9459C119.175 99.1166 120.043 100.853 118.307 102.156C116.57 103.458 110.492 106.497 110.492 106.497C110.492 106.497 103.98 107.8 104.848 104.761C104.848 104.761 109.189 102.59 109.189 100.853C109.189 99.1166 109.189 96.0776 110.492 96.9459C111.794 97.8141 115.702 98.2483 115.702 96.9459Z" fill="#2F2E41"/>
<path d="M123.951 64.3848C123.951 64.3848 130.029 65.2531 129.595 73.936C129.595 73.936 137.409 81.7507 135.238 84.3556C133.068 86.9604 128.292 91.7361 126.556 90.4336C124.819 89.1312 119.609 79.1458 119.609 79.1458C119.609 79.1458 107.453 83.4873 105.282 81.3165C103.112 79.1458 100.941 73.936 100.941 73.936L111.794 68.2921L123.951 64.3848Z" fill="#2F2E41"/>
<path d="M107.019 39.6384C109.896 39.6384 112.229 37.3059 112.229 34.4287C112.229 31.5514 109.896 29.2189 107.019 29.2189C104.142 29.2189 101.809 31.5514 101.809 34.4287C101.809 37.3059 104.142 39.6384 107.019 39.6384Z" fill="#9F616A"/>
<path d="M110.926 34.8628C110.926 34.8628 113.965 39.6384 114.834 40.0726C115.702 40.5067 108.755 44.8482 108.755 44.8482C108.755 44.8482 108.755 39.2043 106.585 37.9018L110.926 34.8628Z" fill="#9F616A"/>
<path d="M111.36 39.6384C111.36 39.6384 118.307 37.4676 119.609 40.9408C120.912 44.414 123.951 50.9262 123.516 55.2677C123.082 59.6092 122.214 58.7409 123.516 60.0433C124.819 61.3457 125.687 60.4775 125.253 62.214C124.819 63.9506 124.385 63.9506 124.819 64.8189C125.253 65.6872 119.609 68.7263 114.834 69.1604L110.058 69.5945C110.058 69.5945 110.058 61.7799 109.19 60.0433C108.321 58.3067 106.585 54.8335 106.585 53.5311V50.0849C106.585 47.7912 107.183 45.5372 108.321 43.5457C108.321 43.5457 110.926 39.6384 111.36 39.6384Z" fill="#6C63FF"/>
<path d="M116.57 41.375C116.57 41.375 132.634 42.6774 134.37 47.0189C136.107 51.3604 136.975 60.0434 135.238 60.0434C133.502 60.0434 131.331 60.9117 130.897 60.0434C130.463 59.1751 128.726 50.4921 128.292 50.4921C127.858 50.4921 114.833 49.1897 114.833 49.1897C114.833 49.1897 109.19 42.2433 116.57 41.375Z" fill="#6C63FF"/>
<path d="M106.809 33.1371C106.809 33.1371 105.427 30.7345 103.699 32.8213C101.971 34.9082 99.1594 31.0732 99.591 30.2549C100.023 29.4366 101.547 30.2917 104.158 29.4379C106.77 28.5841 111.801 26.8447 112.644 32.5186C113.487 38.1925 111.48 37.5977 111.48 37.5977C111.48 37.5977 110.56 32.57 109.729 34.0142L108.897 35.4584L108.176 35.6358L106.809 33.1371Z" fill="#2F2E41"/>
</g>
<defs>
<clipPath id="clip0">
<rect width="184.908" height="120" fill="white"/>
</clipPath>
</defs>
</svg>
