<svg width="22" height="21" viewBox="0 0 22 21" fill="none" xmlns="http://www.w3.org/2000/svg">
<path d="M6.6 10.5C8.72781 10.5 10.45 8.15156 10.45 5.25C10.45 2.34844 8.72781 0 6.6 0C4.47219 0 2.75 2.34844 2.75 5.25C2.75 8.15156 4.47219 10.5 6.6 10.5ZM9.24 12H8.95469C8.23969 12.4688 7.44563 12.75 6.6 12.75C5.75438 12.75 4.96375 12.4688 4.24531 12H3.96C1.77375 12 0 14.4188 0 17.4V18.75C0 19.9922 0.739063 21 1.65 21H11.55C12.4609 21 13.2 19.9922 13.2 18.75V17.4C13.2 14.4188 11.4262 12 9.24 12ZM16.5 10.5C18.3219 10.5 19.8 8.48438 19.8 6C19.8 3.51562 18.3219 1.5 16.5 1.5C14.6781 1.5 13.2 3.51562 13.2 6C13.2 8.48438 14.6781 10.5 16.5 10.5ZM18.15 12H18.0194C17.5416 12.225 17.0363 12.375 16.5 12.375C15.9638 12.375 15.4584 12.225 14.9806 12H14.85C14.1488 12 13.5025 12.2766 12.9353 12.7219C13.7741 13.9547 14.3 15.5906 14.3 17.4V19.2C14.3 19.3031 14.2828 19.4016 14.2794 19.5H20.35C21.2609 19.5 22 18.4922 22 17.25C22 14.3484 20.2778 12 18.15 12V12Z" fill="#CDC9C9"/>
</svg>
