<svg width="165" height="200" viewBox="0 0 165 200" fill="none" xmlns="http://www.w3.org/2000/svg">
<g clip-path="url(#clip0)">
<path d="M150.654 76.5403H22.6438V171.453H150.654V76.5403Z" fill="#3F3D56"/>
<path d="M27.2673 84.6269L35.6954 80.4162C33.256 76.4817 30.0137 72.4626 26.5918 68.7024L14.9645 71.3192L24.5635 66.5234C16.0984 57.6245 7.30567 50.672 7.30567 50.672C7.30567 50.672 -2.30523 86.4469 0.519798 102.339C2.15837 111.556 6.57393 118.832 12.1091 122.654L12.3343 102.119L15.3409 124.434C18.5529 125.796 21.983 125.974 25.2649 124.948C36.1063 121.542 42.6048 105.899 39.7797 90.0066C39.3566 87.6261 38.3294 85.0759 36.8923 82.4608L27.2673 84.6269Z" fill="#D0CDE1"/>
<path opacity="0.1" d="M28.584 120.124C31.3924 117.968 33.2205 115.189 32.6673 113.915C32.1142 112.641 29.3891 113.356 26.5808 115.511C23.7725 117.667 21.9443 120.446 22.4975 121.72C23.0506 122.994 25.7757 122.279 28.584 120.124Z" fill="black"/>
<path d="M61.1402 171.453H49.6247C47.9735 169.393 46.4328 167.182 45.0138 164.836L36.9862 146.853L26.9279 124.315L25.8085 121.81L24.8882 119.746L29.8625 116.073L30.9198 117.947L31.1262 118.312L32.3387 120.457L40.5051 134.918L41.3981 124.062H44.7143L41.9916 137.549L61.1402 171.453Z" fill="#F2F2F2"/>
<path d="M133.725 85.5738L124.188 84.3087C125.887 79.3738 128.395 74.0596 131.141 68.9464L143.641 67.4077L132.779 65.9668C139.655 53.7324 147.268 43.3811 147.268 43.3811C147.268 43.3811 164.521 76.686 164.888 94.062C165.1 104.14 162.056 113.232 157.149 119.177L152.689 98.1343L154.191 122.184C151.167 124.754 147.675 126.185 144.088 126.323C132.234 126.765 122.328 113.037 121.961 95.6607C121.907 93.0579 122.438 90.0607 123.378 86.8476L133.725 85.5738Z" fill="#D0CDE1"/>
<path opacity="0.1" d="M146.27 121.996C146.577 120.485 144.124 118.29 140.791 117.095C137.458 115.9 134.508 116.156 134.201 117.668C133.894 119.179 136.347 121.373 139.68 122.569C143.012 123.764 145.963 123.508 146.27 121.996Z" fill="black"/>
<path d="M143.404 120.834L143.348 121.103L142.882 123.295L142.247 126.278V126.281L136.54 153.121L132.691 171.222C132.625 171.3 132.559 171.375 132.492 171.453H121.55L129.475 145.373L123.898 132.49L127.309 131.284L130.463 142.122L135.886 124.281L135.888 124.278L136.692 121.63L136.829 121.178L137.53 118.865L143.222 120.775L143.404 120.834Z" fill="#F2F2F2"/>
<path d="M70.6743 177.595L66.1152 200H81.7267L83.5227 197.796L84.2135 200H100.93C100.93 200 102.726 185.492 100.516 184.39C98.3053 183.288 70.6743 177.595 70.6743 177.595Z" fill="#2F2E41"/>
<path d="M88.2199 89.2603C93.4847 89.2603 97.7526 83.587 97.7526 76.5886C97.7526 69.5902 93.4847 63.9169 88.2199 63.9169C82.9552 63.9169 78.6873 69.5902 78.6873 76.5886C78.6873 83.587 82.9552 89.2603 88.2199 89.2603Z" fill="#A0616A"/>
<path d="M81.105 82.9244C81.105 82.9244 82.901 100.922 80.1379 102.942C77.3748 104.962 96.5783 105.146 96.5783 105.146C96.5783 105.146 92.2955 89.5358 94.2297 84.7609L81.105 82.9244Z" fill="#A0616A"/>
<path d="M87.5292 99.9118C87.5292 99.9118 82.6926 98.9515 81.657 95.7587L67.0823 104.319C67.0823 104.319 69.7072 129.846 71.2269 134.438L69.2927 180.533C69.2927 180.533 82.8319 192.47 101.068 186.043L105.627 135.356L110.601 105.238L94.6773 96.7362C94.6773 96.7362 91.5356 99.5445 87.5292 99.9118Z" fill="#6C63FF"/>
<path d="M97.6146 157.945C97.6146 157.945 80.069 157.21 81.3124 164.189C82.5558 171.167 98.7198 163.821 98.7198 163.821L97.6146 157.945Z" fill="#A0616A"/>
<path d="M80.2896 64.6023L78.5072 63.6538C78.5072 63.6538 82.234 58.1997 87.4191 58.674L85.9608 56.5398C85.9608 56.5398 89.5256 54.6428 92.7662 59.6225C94.4698 62.2403 96.4408 65.3173 97.6696 68.7835H99.5784L98.7817 71.1153L101.57 73.4471L98.7081 73.0283C98.8786 74.3052 98.9048 75.6088 98.7858 76.896C98.663 78.1836 98.1687 79.3574 97.4072 80.1697C97.4072 80.1697 95.1967 74.0876 95.1967 73.1391V75.5104C95.1967 75.5104 93.4143 73.3762 93.4143 71.9534L92.4422 73.6133L91.9561 71.0049L85.9608 73.6133L86.933 71.4792L83.2062 72.1905L84.6646 69.5821C84.6646 69.5821 80.4517 72.6648 80.2896 75.2733C80.1276 77.8817 78.8945 80.3534 78.8945 80.3534C78.8945 80.3534 75.5906 68.1593 80.2896 64.6023Z" fill="#2F2E41"/>
<path d="M91.881 150.496V153.622C91.881 153.651 91.8723 153.678 91.8569 153.699C91.8416 153.719 91.8207 153.731 91.799 153.731H91.7407V170.015C91.7406 170.465 91.606 170.897 91.3663 171.216C91.1266 171.535 90.8015 171.714 90.4625 171.714H82.8082C82.4693 171.714 82.1442 171.535 81.9046 171.216C81.6649 170.897 81.5303 170.465 81.5304 170.015V154.302H81.4881C81.4728 154.302 81.4581 154.294 81.4472 154.28C81.4363 154.265 81.4302 154.246 81.4301 154.225V152.446C81.4301 152.426 81.4362 152.406 81.4471 152.392C81.458 152.377 81.4727 152.369 81.4881 152.369H81.5304V151.699H81.4878C81.4717 151.699 81.4563 151.69 81.4449 151.675C81.4336 151.66 81.4272 151.64 81.4272 151.618V149.863C81.4273 149.842 81.4337 149.822 81.445 149.807C81.4564 149.792 81.4717 149.783 81.4878 149.783H81.5304V148.868H81.487C81.48 148.868 81.473 148.866 81.4665 148.863C81.46 148.859 81.4541 148.854 81.4491 148.847C81.4441 148.841 81.4401 148.833 81.4374 148.824C81.4347 148.816 81.4334 148.806 81.4333 148.797V147.839C81.4333 147.82 81.4389 147.802 81.449 147.789C81.4591 147.775 81.4728 147.768 81.487 147.768H81.5304V145.829C81.5304 145.378 81.665 144.946 81.9046 144.628C82.1443 144.309 82.4693 144.13 82.8082 144.13H90.4625C90.8014 144.13 91.1265 144.309 91.3662 144.627C91.6059 144.946 91.7406 145.378 91.7407 145.829V150.387H91.799C91.8207 150.387 91.8416 150.399 91.8569 150.419C91.8723 150.439 91.881 150.467 91.881 150.496Z" fill="#3F3D56"/>
<path d="M86.6484 153.049C87.3404 153.049 87.9015 152.304 87.9015 151.384C87.9015 150.464 87.3404 149.718 86.6484 149.718C85.9563 149.718 85.3953 150.464 85.3953 151.384C85.3953 152.304 85.9563 153.049 86.6484 153.049Z" fill="#F2F2F2"/>
<path d="M106.318 105.238H110.601C110.601 105.238 124.278 144.906 120.963 149.68C117.647 154.455 97.6146 167.494 97.6146 167.494C97.6146 167.494 96.0949 157.394 94.7134 157.394L108.529 146.007L101.759 124.521L106.318 105.238Z" fill="#6C63FF"/>
<path d="M75.6481 156.292C75.6481 156.292 91.2595 167.311 88.3583 172.085C85.457 176.86 71.5034 163.638 71.5034 163.638L75.6481 156.292Z" fill="#A0616A"/>
<path d="M69.0164 104.503H67.0823C67.0823 104.503 64.3192 107.992 63.4903 115.889L55.464 139.664C55.2214 140.383 55.1007 141.164 55.1104 141.952C55.1201 142.739 55.2601 143.515 55.5203 144.223C57.3016 149.072 61.9899 160.015 69.0165 163.27L72.6085 166.943C72.6085 166.943 72.194 157.945 77.8584 157.945L68.1875 143.987L71.9177 127.826L69.0164 104.503Z" fill="#6C63FF"/>
<path d="M134.315 0H86.7405V48.7851H134.315V0Z" fill="#3F3D56"/>
<path d="M101.617 17.5667H94.9714V40.855H101.617V17.5667Z" fill="#D0CDE1"/>
<path d="M113.85 26.601H107.205V40.855H113.85V26.601Z" fill="#D0CDE1"/>
<path d="M126.083 7.93005H119.438V40.8549H126.083V7.93005Z" fill="#D0CDE1"/>
<path d="M110.527 21.9834C112.363 21.9834 113.85 20.006 113.85 17.5667C113.85 15.1274 112.363 13.1499 110.527 13.1499C108.692 13.1499 107.205 15.1274 107.205 17.5667C107.205 20.006 108.692 21.9834 110.527 21.9834Z" fill="#6C63FF"/>
<path d="M75.2359 9.38245H27.6619V58.1675H75.2359V9.38245Z" fill="#3F3D56"/>
<path d="M34.9111 48.1295C34.9111 48.1295 35.3642 31.8678 44.426 34.4777C53.4877 37.0876 66.9293 22.0305 66.9293 22.0305" fill="#6C63FF"/>
<path d="M34.9866 47.3265V16.2085H31.9661V47.3265V51.1408V51.3418H70.9315V47.3265H34.9866Z" fill="#D0CDE1"/>
<path d="M80.0474 127.837L81.7008 130.401C82.3151 130.245 82.9566 130.062 83.6174 129.857L83.1425 127.837L84.3036 129.637C91.3035 127.349 99.9797 122.899 99.9797 122.899C99.9797 122.899 90.6128 123.812 83.619 121.781C80.5246 120.883 77.3408 122.922 76.071 126.779C75.3329 129.021 75.4488 130.963 78.0665 130.963C78.951 130.943 79.8331 130.833 80.7049 130.633L80.0474 127.837Z" fill="#2F2E41"/>
</g>
<defs>
<clipPath id="clip0">
<rect width="164.898" height="200" fill="white"/>
</clipPath>
</defs>
</svg>
