<svg width="257" height="219" viewBox="0 0 257 219" fill="none" xmlns="http://www.w3.org/2000/svg">
<g opacity="0.8">
<path opacity="0.1" d="M4.97625 69.8258C3.04119 77.4461 8.73046 84.2995 13.2053 89.8189C19.3303 97.3907 24.1633 106.553 27.3907 116.711C29.3358 122.85 30.6888 129.454 30.326 136.078C29.298 154.865 15.6972 167.382 4.83011 179.827C3.29063 181.607 1.75115 183.469 0.85417 185.868C-2.02574 193.567 2.86986 202.439 8.26182 207.349C27.4637 224.825 55.1794 219.627 73.8044 201.125C83.4494 191.541 91.7389 178.51 103.427 174.249C110.901 171.538 118.832 172.823 126.565 173.659C138.159 174.908 149.807 175.088 161.421 174.196C165.498 173.869 169.761 173.357 173.175 170.444C181.82 163.076 180.361 145.606 186.6 134.889C191.085 127.186 198.747 124.217 205.416 119.959C215.682 113.37 224.248 103.03 230.065 90.2056C235.42 78.3507 238.194 64.8734 240.9 51.5861C242.941 41.6027 244.989 31.1473 243.261 21.0622C241.532 10.9772 234.709 1.56075 226.797 2.44569C220.723 3.12415 215.89 9.3679 210.04 11.6032C196.025 16.9718 182.42 -1.6742 167.881 0.12518C158.728 1.25594 151.345 10.2856 145.764 19.7905C140.183 29.2955 135.459 39.9967 128.089 47.1549C116.625 58.2986 100.918 58.6919 86.8837 55.0833C72.8494 51.4747 59.3847 44.3722 45.1942 42.0058C36.8342 40.6129 30.4268 47.0926 22.8982 50.6553C15.9895 53.9263 7.53617 59.7473 4.97625 69.8258Z" fill="#9896B1"/>
<path opacity="0.1" d="M34.7579 219C44.88 219 53.0856 215.757 53.0856 211.757C53.0856 207.756 44.88 204.513 34.7579 204.513C24.6359 204.513 16.4303 207.756 16.4303 211.757C16.4303 215.757 24.6359 219 34.7579 219Z" fill="#9896B1"/>
<path opacity="0.1" d="M208.052 123.338C235.085 123.338 257 121.446 257 119.113C257 116.78 235.085 114.888 208.052 114.888C181.018 114.888 159.103 116.78 159.103 119.113C159.103 121.446 181.018 123.338 208.052 123.338Z" fill="#9896B1"/>
<g opacity="0.5">
<path opacity="0.5" d="M178.459 22.4185C179.138 22.4185 179.789 22.7694 180.269 23.3939C180.749 24.0183 181.019 24.8653 181.019 25.7485V118.34H175.899V25.7452C175.899 24.8626 176.169 24.0165 176.649 23.3927C177.129 22.7689 177.78 22.4185 178.459 22.4185Z" fill="#9896B1"/>
<path opacity="0.5" d="M234.628 22.4185C235.307 22.4185 235.958 22.7693 236.439 23.3938C236.919 24.0183 237.188 24.8653 237.188 25.7485V118.34H232.056V25.7452C232.056 25.3068 232.123 24.8728 232.253 24.4681C232.382 24.0634 232.572 23.6959 232.811 23.3869C233.05 23.0778 233.334 22.8331 233.646 22.6669C233.957 22.5008 234.291 22.4163 234.628 22.4185Z" fill="#9896B1"/>
<path opacity="0.5" d="M249.57 43.1163C250.984 43.1163 252.13 41.6254 252.13 39.7863C252.13 37.9472 250.984 36.4563 249.57 36.4563L163.52 36.4563C162.106 36.4563 160.96 37.9472 160.96 39.7863C160.96 41.6254 162.106 43.1163 163.52 43.1163L249.57 43.1163Z" fill="#9896B1"/>
<path opacity="0.5" d="M174.377 29.8848C174.377 28.4439 173.479 27.2758 172.371 27.2758C171.264 27.2758 170.366 28.4439 170.366 29.8848V49.6812C170.366 51.1221 171.264 52.2902 172.371 52.2902C173.479 52.2902 174.377 51.1221 174.377 49.6812V29.8848Z" fill="#9896B1"/>
<path opacity="0.5" d="M170.366 32.225C170.366 30.7841 169.468 29.616 168.36 29.616C167.253 29.616 166.355 30.7841 166.355 32.225V47.3443C166.355 48.7852 167.253 49.9533 168.36 49.9533C169.468 49.9533 170.366 48.7852 170.366 47.3443V32.225Z" fill="#9896B1"/>
<path opacity="0.5" d="M238.71 49.6812C238.71 51.1221 239.608 52.2902 240.716 52.2902C241.824 52.2902 242.721 51.1221 242.721 49.6812V29.8848C242.721 28.4439 241.824 27.2758 240.716 27.2758C239.608 27.2758 238.71 28.4439 238.71 29.8848V49.6812Z" fill="#9896B1"/>
<path opacity="0.5" d="M242.721 47.3411C242.721 48.782 243.619 49.95 244.727 49.95C245.835 49.95 246.733 48.782 246.733 47.3411V32.2217C246.733 30.7808 245.835 29.6127 244.727 29.6127C243.619 29.6127 242.721 30.7808 242.721 32.2217V47.3411Z" fill="#9896B1"/>
</g>
<g opacity="0.5">
<path opacity="0.5" d="M201.433 61.1724H211.899C213.035 61.1724 214.125 61.7594 214.928 62.8043C215.731 63.8492 216.182 65.2665 216.182 66.7442V90.1329H197.159V66.7442C197.159 65.2687 197.609 63.8535 198.41 62.8089C199.212 61.7644 200.298 61.1758 201.433 61.1724Z" fill="#9896B1"/>
<path opacity="0.5" d="M208.052 88.032H205.267V100.103H208.052V88.032Z" fill="#9896B1"/>
<path opacity="0.5" d="M202.483 101.611H199.699V113.682H202.483V101.611Z" fill="#9896B1"/>
<path opacity="0.5" d="M214.084 101.611H211.299V113.682H214.084V101.611Z" fill="#9896B1"/>
<path opacity="0.5" d="M216.172 99.1953H197.149V102.515H216.172V99.1953Z" fill="#9896B1"/>
</g>
<path opacity="0.1" d="M119.2 199.384C176.854 199.384 223.592 194.926 223.592 189.427C223.592 183.927 176.854 179.469 119.2 179.469C61.5458 179.469 14.8077 183.927 14.8077 189.427C14.8077 194.926 61.5458 199.384 119.2 199.384Z" fill="#9896B1"/>
<path d="M146.228 153.967C146.228 153.967 153.419 158.191 156.899 158.191C156.899 158.191 160.61 159.398 162.694 160.607C164.777 161.816 172.901 162.416 172.901 162.416C172.901 162.416 182.412 166.942 183.571 169.057C184.73 171.171 188.21 161.518 188.21 161.518L186.353 155.484L151.33 146.733L146.228 153.967Z" fill="#FFB9B9"/>
<path opacity="0.05" d="M146.228 153.967C146.228 153.967 153.419 158.191 156.899 158.191C156.899 158.191 160.61 159.398 162.694 160.607C164.777 161.816 172.901 162.416 172.901 162.416C172.901 162.416 182.412 166.942 183.571 169.057C184.73 171.171 188.21 161.518 188.21 161.518L186.353 155.484L151.33 146.733L146.228 153.967Z" fill="black"/>
<path d="M181.722 167.247C181.722 167.247 186.128 174.786 184.274 179.319C182.42 183.851 183.115 183.845 184.274 184.146C185.433 184.448 191.929 186.26 192.627 179.62C193.324 172.98 194.715 158.195 194.715 158.195L185.191 156.985C185.191 156.985 187.754 168.152 181.722 167.247Z" fill="#737A9D"/>
<path d="M126.973 144.009L146.923 156.081C146.923 156.081 153.187 149.742 152.718 146.425L129.52 139.182L126.973 144.009Z" fill="#4C4C78"/>
<path opacity="0.1" d="M126.973 144.009L146.923 156.081C146.923 156.081 153.187 149.742 152.718 146.425L129.52 139.182L126.973 144.009Z" fill="black"/>
<path d="M210.72 159.702L208.624 166.339L203.761 167.841C202.398 166.361 200.941 165.037 199.404 163.881C196.786 161.915 193.342 159.991 190.082 160.296C190.082 160.296 177.091 157.579 176.395 156.363C176.395 156.363 168.043 153.947 166.188 154.249C165.294 154.393 163.371 153.557 161.623 152.649C159.746 151.666 158.068 150.627 158.068 150.627L164.1 138.254C164.803 138.648 165.527 138.977 166.266 139.237C168.572 140.116 172.722 141.256 178.716 141.256C188.459 141.256 201.914 154.232 201.914 154.232C201.914 154.232 202.047 154.291 202.277 154.38C203.285 154.776 206.157 155.71 207.482 154.232C209.095 152.459 210.72 159.702 210.72 159.702Z" fill="#FFB9B9"/>
<path opacity="0.1" d="M210.72 159.702L208.624 166.339L203.761 167.841C202.398 166.361 200.941 165.037 199.404 163.881C206.479 164.573 202.254 154.412 202.254 154.412H202.269C203.277 154.809 206.149 155.743 207.475 154.265C209.095 152.459 210.72 159.702 210.72 159.702Z" fill="black"/>
<path d="M199.432 164.137C199.432 164.137 205.043 174.373 202.682 180.138C200.321 185.903 201.206 185.9 202.682 186.287C204.159 186.673 212.431 188.978 213.315 180.525C213.995 174.025 213.398 161.551 213.086 156.136C213.066 155.795 212.994 155.461 212.874 155.156C212.754 154.851 212.589 154.58 212.388 154.358C212.186 154.137 211.953 153.97 211.702 153.866C211.451 153.763 211.186 153.726 210.924 153.757L202.718 154.74C202.718 154.74 207.112 165.291 199.432 164.137Z" fill="#737A9D"/>
<path d="M66.1926 174.186L66.4244 188.974L68.9768 191.387H77.7929L79.4155 188.371V174.186L76.8632 171.167H68.5132L66.1926 174.186Z" fill="#9896B1"/>
<path opacity="0.2" d="M67.5834 174.487C67.5834 174.487 69.2086 188.066 67.5834 189.276L66.4244 188.974L66.1926 174.491L67.5834 174.487Z" fill="white"/>
<path d="M86.6065 173.281L88.4634 170.866H97.2821L99.139 173.281C99.139 173.281 101.46 182.032 99.6026 187.765L97.5088 190.482H88.6902L86.6014 188.066L86.6065 173.281Z" fill="#9896B1"/>
<path opacity="0.1" d="M66.1926 174.186L66.4244 188.974L68.9768 191.387H77.7929L79.4155 188.371V174.186L76.8632 171.167H68.5132L66.1926 174.186Z" fill="black"/>
<path opacity="0.1" d="M86.6065 173.281L88.4634 170.866H97.2821L99.139 173.281C99.139 173.281 101.46 182.032 99.6026 187.765L97.5088 190.482H88.6902L86.6014 188.066L86.6065 173.281Z" fill="black"/>
<path opacity="0.2" d="M88.6902 173.884C88.6902 173.884 90.5472 184.448 88.6902 188.066H86.6014V173.281L88.6902 173.884Z" fill="white"/>
<path d="M79.4155 123.187C79.4155 123.187 80.3427 134.957 80.3427 136.464C80.3427 137.972 79.8791 147.936 81.27 157.588C82.6608 167.241 80.3427 179.312 80.3427 179.312H87.9973L91.2451 146.72L88.9245 129.519L87.9973 124.088L79.4155 123.187Z" fill="#FFB9B9"/>
<path opacity="0.05" d="M79.4155 123.187C79.4155 123.187 80.3427 134.957 80.3427 136.464C80.3427 137.972 79.8791 147.936 81.27 157.588C82.6608 167.241 80.3427 179.312 80.3427 179.312H87.9973L91.2451 146.72L88.9245 129.519L87.9973 124.088L79.4155 123.187Z" fill="black"/>
<path d="M78.0247 93.3121C78.0247 93.3121 67.8178 93.6136 75.936 115.642C75.936 115.642 78.0247 124.695 78.0247 126.206C78.0247 127.717 88.4635 127.713 89.6149 126.206C90.7664 124.698 87.758 112.325 87.758 106.59C87.758 100.854 84.7521 91.5029 78.0247 93.3121Z" fill="#CBCDDA"/>
<path opacity="0.05" d="M78.0247 93.3121C78.0247 93.3121 67.8178 93.6136 75.936 115.642C75.936 115.642 78.0247 124.695 78.0247 126.206C78.0247 127.717 88.4635 127.713 89.6149 126.206C90.7664 124.698 87.758 112.325 87.758 106.59C87.758 100.854 84.7521 91.5029 78.0247 93.3121Z" fill="black"/>
<path d="M65.729 80.3297C65.729 80.3297 74.5476 92.7025 81.9679 83.6499L81.0407 115.639C81.0407 115.639 68.9768 96.629 60.6318 98.1367L65.729 80.3297Z" fill="#FFB9B9"/>
<path opacity="0.1" d="M166.256 139.273C165.904 142.81 164.795 150.256 161.613 152.669C159.736 151.685 158.057 150.646 158.057 150.646L164.089 138.274C164.793 138.673 165.517 139.007 166.256 139.273Z" fill="black"/>
<path d="M165.715 137.359C165.715 137.359 165.019 152.148 159.451 153.354L125.819 145.461C124.187 145.076 122.652 144.175 121.349 142.839C119.991 141.45 118.326 139.562 117.341 137.831C116.807 136.887 116.484 135.986 116.537 135.242C116.769 131.922 126.976 124.075 123.496 110.195C123.991 109.685 124.541 109.274 125.129 108.976C128.034 107.406 134.721 106.252 144.374 119.247C144.374 119.264 162.235 137.975 165.715 137.359Z" fill="#4C4C78"/>
<path d="M74.777 175.392L75.0088 190.18L77.5586 192.596H86.3747L87.9999 189.577V175.392L85.4475 172.377H77.095L74.777 175.392Z" fill="#9896B1"/>
<path opacity="0.2" d="M76.1678 175.707C76.1678 175.707 77.793 189.286 76.1678 190.495L75.0088 190.194L74.777 175.707H76.1678Z" fill="white"/>
<path d="M100.296 174.186L102.152 171.77H110.971L112.828 174.186C112.828 174.186 115.149 182.937 113.292 188.669L111.203 191.387H102.384L100.296 188.971V174.186Z" fill="#9896B1"/>
<path opacity="0.2" d="M102.382 174.789C102.382 174.789 104.239 185.353 102.382 188.971H100.293V174.186L102.382 174.789Z" fill="white"/>
<path d="M87.9343 179.922H100.484C101.467 179.922 102.263 181.069 102.263 182.488C102.263 183.904 101.467 185.054 100.484 185.054H87.9343C86.8685 185.054 86.042 183.714 86.1705 182.19C86.2738 180.895 87.0348 179.922 87.9343 179.922Z" fill="#9896B1"/>
<path opacity="0.1" d="M124.189 132.843C121.707 135.104 119.092 136.586 117.338 137.848C116.804 136.904 116.481 136.002 116.534 135.258C116.766 131.938 126.973 124.092 123.493 110.211C123.988 109.702 124.538 109.291 125.126 108.992C125.671 108.977 126.213 108.88 126.741 108.704C126.741 108.704 128.827 128.618 124.189 132.843Z" fill="black"/>
<path d="M72.1087 103.722C72.1087 103.722 75.5883 108.248 78.952 111.116C82.0561 113.761 76.5155 87.1241 76.5155 87.1241C76.5155 87.1241 79.9522 83.5188 81.9704 81.3785C83.3183 79.9361 85.0356 79.2102 86.7778 79.3464C91.4215 79.7365 99.9277 82.2766 106.791 94.5215C116.766 112.325 125.814 108.704 125.814 108.704C125.814 108.704 127.903 128.621 123.262 132.846C118.621 137.071 113.518 138.579 114.443 140.994C115.368 143.41 110.268 129.224 98.6679 126.812C87.0676 124.4 74.3083 113.836 74.5426 108.707C74.5452 108.704 71.1815 105.239 72.1087 103.722Z" fill="#CBCDDA"/>
<path opacity="0.1" d="M69.6722 88.1959C69.6711 87.3234 69.6121 86.4527 69.4958 85.5935C66.4572 83.6269 66.8881 80.9525 66.8881 80.9525L61.7833 98.7562C63.6504 98.4284 65.7038 99.1101 67.7649 100.395C70.4785 97.6057 69.6722 93.0106 69.6722 88.1959Z" fill="black"/>
<path d="M59.4653 102.971C65.8719 102.971 71.0655 96.2151 71.0655 87.8812C71.0655 79.5473 65.8719 72.7913 59.4653 72.7913C53.0586 72.7913 47.865 79.5473 47.865 87.8812C47.865 96.2151 53.0586 102.971 59.4653 102.971Z" fill="#FFB9B9"/>
<path opacity="0.1" d="M48.9258 91.2833C48.7116 92.1781 48.3815 93.0991 47.7592 93.5776C47.0033 94.161 45.9602 93.8726 45.2874 93.1188C44.6147 92.3649 44.2519 91.2374 44.0629 90.11C43.7907 88.4775 43.834 86.7826 44.1889 85.1772C44.4913 83.8171 45.0128 82.5552 45.232 81.1622C45.4663 79.6808 45.3479 78.1305 45.61 76.6556C45.9652 74.6563 46.9781 72.9814 47.9658 71.3787C48.2753 70.767 48.6765 70.2427 49.1454 69.8372C49.6142 69.4317 50.1411 69.1534 50.6945 69.0189L55.5498 67.1146C56.4703 66.7136 57.4164 66.4196 58.3768 66.2362C59.6116 66.0718 60.8591 66.2142 62.0529 66.6558C63.0036 66.9668 63.9056 67.4903 64.7187 68.2028C65.5242 68.9813 66.2337 69.9152 66.8225 70.9723C69.39 75.338 70.8539 82.4798 73.502 86.7767C72.4564 87.1962 71.4108 85.7934 70.3651 86.2195C70.2165 86.3029 70.0509 86.3201 69.8939 86.2687C69.7385 86.1588 69.6166 85.983 69.5488 85.7705C68.6273 83.6766 67.177 82.0622 65.4443 81.2016C64.1593 80.569 62.4208 80.5723 61.7178 82.1062C61.2416 83.1419 61.4331 84.4496 61.5591 85.6459C61.6851 86.8422 61.6624 88.268 60.9342 89.0054C60.5318 89.3592 60.0635 89.5653 59.5787 89.6019C57.3187 89.9872 55.021 89.6946 52.8614 88.7465C52.1055 88.4187 51.337 87.3929 50.5383 87.7206C49.4599 88.1631 49.2105 90.0936 48.9258 91.2833Z" fill="black"/>
<path d="M48.6713 90.9523C48.4571 91.8471 48.127 92.7681 47.5047 93.2466C46.7488 93.83 45.7057 93.5416 45.0329 92.7877C44.3602 92.0339 43.9974 90.9064 43.8084 89.7789C43.5362 88.1464 43.5795 86.4516 43.9344 84.8462C44.2367 83.486 44.7583 82.2242 44.9775 80.8312C45.2118 79.3497 45.0934 77.7995 45.3554 76.3246C45.7107 74.3252 46.7236 72.6504 47.7113 71.0477C48.0208 70.4359 48.422 69.9116 48.8908 69.5062C49.3597 69.1007 49.8866 68.8224 50.44 68.6878L55.2953 66.7836C56.2159 66.3837 57.1619 66.0908 58.1223 65.9085C59.357 65.744 60.6045 65.8864 61.7984 66.328C62.7491 66.6391 63.6511 67.1625 64.4641 67.875C65.2697 68.6535 65.9792 69.5875 66.568 70.6445C69.1355 75.0103 70.5994 82.1521 73.2475 86.4489C72.2019 86.8685 71.1562 85.4657 70.1106 85.8918C69.962 85.9751 69.7964 85.9924 69.6394 85.9409C69.4821 85.8323 69.3584 85.6563 69.2892 85.4427C68.3677 83.3488 66.9175 81.7345 65.1848 80.8738C63.8998 80.2412 62.1612 80.2445 61.4583 81.7784C60.9821 82.8141 61.1735 84.1219 61.2995 85.3182C61.4255 86.5145 61.4028 87.9402 60.6747 88.6777C60.2723 89.0314 59.804 89.2375 59.3191 89.2742C57.0592 89.6595 54.7614 89.3669 52.6018 88.4187C51.846 88.091 51.0775 87.0651 50.2788 87.3929C49.2054 87.8321 48.956 89.7625 48.6713 90.9523Z" fill="#B96B6B"/>
<g opacity="0.1">
<path opacity="0.1" d="M77.3015 86.3014L76.5154 87.1273C76.5154 87.1273 79.7632 102.738 79.8917 108.871C81.5496 108.287 78.3597 91.5848 77.3015 86.3014Z" fill="black"/>
<path opacity="0.1" d="M123.713 130.43C119.074 134.655 113.969 136.163 114.894 138.578C115.819 140.994 110.719 126.809 99.1188 124.396C88.2366 122.132 76.334 112.696 75.0944 107.301C73.3558 105.367 72.091 103.725 72.091 103.725C71.1638 105.233 74.5275 108.704 74.5275 108.704C74.2957 113.833 87.0549 124.396 98.6527 126.809C110.25 129.221 115.355 143.406 114.428 140.991C113.501 138.575 118.603 137.058 123.247 132.843C124.574 131.633 125.35 129.139 125.784 126.193C125.335 128.058 124.67 129.568 123.713 130.43Z" fill="black"/>
</g>
<path d="M100.295 159.401C99.6001 160.607 99.1365 172.98 99.1365 172.98C99.1365 172.98 101.908 190.783 93.3414 188.974C84.7747 187.165 92.1823 174.491 92.1823 174.491L91.0233 156.989C86.6165 141.912 87.5437 131.037 87.5437 131.037L86.7198 121.181L86.3822 117.156L96.3573 114.138C96.0852 114.61 96.2011 117.553 96.4455 120.971C96.826 126.327 97.5164 132.846 97.5164 132.846C99.5975 135.861 100.991 158.191 100.295 159.401Z" fill="#FFB9B9"/>
<path opacity="0.1" d="M86.1429 86.9766C86.1429 86.9766 75.936 87.2781 84.0541 109.307C84.0541 109.307 86.1429 118.359 86.1429 119.87C86.1429 121.381 96.5816 121.378 97.7331 119.87C98.8846 118.363 95.8761 105.99 95.8761 100.254C95.8761 94.5182 92.8703 85.1641 86.1429 86.9766Z" fill="black"/>
<path opacity="0.1" d="M96.438 120.971C94.2712 121.742 88.9598 121.811 86.7098 121.181L86.3722 117.156L96.3473 114.138C96.0803 114.606 96.1962 117.55 96.438 120.971Z" fill="black"/>
<path d="M85.6793 86.9766C85.6793 86.9766 75.4723 87.2781 83.5905 109.307C83.5905 109.307 85.6793 118.359 85.6793 119.87C85.6793 121.381 96.118 121.378 97.2695 119.87C98.4209 118.363 95.4125 105.99 95.4125 100.254C95.4125 94.5182 92.4066 85.1641 85.6793 86.9766Z" fill="#CBCDDA"/>
<g opacity="0.5">
<path opacity="0.5" d="M18.9072 134.216L11.5197 134.413L10.3153 136.569V144.023L11.822 145.396H18.9072L20.4164 143.239V136.179L18.9072 134.216Z" fill="#9896B1"/>
<path opacity="0.2" d="M18.7585 135.393C18.7585 135.393 11.9732 136.766 11.371 135.393L11.5221 134.409L18.7585 134.213V135.393Z" fill="white"/>
<path opacity="0.5" d="M19.5119 155.789L20.7188 157.359V164.812L19.5119 166.382C19.5119 166.382 15.1403 168.349 12.2755 166.775L10.9175 165.009V157.556L12.1244 155.789H19.5119Z" fill="#9896B1"/>
<path opacity="0.2" d="M19.2095 157.556C19.2095 157.556 13.9335 159.126 12.1244 157.556V155.789H19.5119L19.2095 157.556Z" fill="white"/>
<path opacity="0.5" d="M16.6471 145.343V155.953C16.6295 156.373 16.4848 156.767 16.2444 157.049C16.0041 157.331 15.6878 157.478 15.3646 157.457C15.0414 157.478 14.7251 157.331 14.4848 157.049C14.2445 156.767 14.0997 156.373 14.0822 155.953V145.343C14.0822 144.442 14.7524 143.744 15.5133 143.849C15.8108 143.872 16.0912 144.037 16.3005 144.313C16.5099 144.589 16.6333 144.956 16.6471 145.343Z" fill="#9896B1"/>
<path opacity="0.5" d="M30.7393 134.518L23.3518 134.714L22.1449 136.871V144.324L23.6541 145.697H30.7393L32.246 143.541V136.481L30.7393 134.518Z" fill="#9896B1"/>
<path opacity="0.2" d="M30.588 135.697C30.588 135.697 23.8027 137.071 23.2006 135.697L23.3517 134.714L30.588 134.518V135.697Z" fill="white"/>
<path opacity="0.5" d="M31.3415 156.094L32.5483 157.664V165.117L31.3415 166.687C31.3415 166.687 26.9699 168.653 24.1051 167.08L22.7471 165.314V157.857L23.954 156.091L31.3415 156.094Z" fill="#9896B1"/>
<path opacity="0.2" d="M31.0416 157.857C31.0416 157.857 25.7655 159.427 23.9564 157.857V156.091H31.3439L31.0416 157.857Z" fill="white"/>
<path opacity="0.5" d="M28.4716 145.645V156.254C28.454 156.675 28.3092 157.069 28.0689 157.351C27.8286 157.633 27.5123 157.779 27.1891 157.759C26.8659 157.779 26.5496 157.633 26.3093 157.351C26.069 157.069 25.9242 156.675 25.9066 156.254V145.645C25.9066 144.744 26.5768 144.045 27.3378 144.15C27.6353 144.173 27.9157 144.339 28.125 144.615C28.3343 144.891 28.4578 145.258 28.4716 145.645Z" fill="#9896B1"/>
<path opacity="0.5" d="M45.8015 140.194L39.7192 140.355L38.7264 142.131V148.267L39.9686 149.394H45.8015L47.0411 147.618V141.807L45.8015 140.194Z" fill="#9896B1"/>
<path opacity="0.2" d="M45.6755 141.161C45.6755 141.161 40.0895 142.292 39.5931 141.161L39.7166 140.355L45.6729 140.194L45.6755 141.161Z" fill="white"/>
<path opacity="0.5" d="M46.2978 157.952L47.2906 159.244V165.379L46.2978 166.67C46.2978 166.67 42.6998 168.286 40.3415 166.998L39.2228 165.546V159.404L40.2155 157.952H46.2978Z" fill="#9896B1"/>
<path opacity="0.2" d="M46.0484 159.404C46.0484 159.404 41.7045 160.695 40.2155 159.404V157.952H46.2978L46.0484 159.404Z" fill="white"/>
<path opacity="0.5" d="M43.9394 149.352V158.087C43.9238 158.431 43.8041 158.754 43.6064 158.985C43.4088 159.216 43.149 159.336 42.8837 159.319C42.6176 159.336 42.3571 159.215 42.1593 158.983C41.9614 158.751 41.8423 158.426 41.828 158.08V149.352C41.8368 149.167 41.8751 148.987 41.9406 148.822C42.0062 148.658 42.0974 148.513 42.2084 148.398C42.3195 148.282 42.4479 148.198 42.5854 148.15C42.723 148.103 42.8667 148.094 43.0072 148.123C43.2518 148.142 43.4823 148.278 43.6544 148.505C43.8265 148.732 43.9281 149.033 43.9394 149.352Z" fill="#9896B1"/>
<path opacity="0.5" d="M55.5398 140.44L49.4574 140.604L48.4647 142.377V148.513L49.7069 149.644H55.5398L56.7819 147.867V142.056L55.5398 140.44Z" fill="#9896B1"/>
<path opacity="0.2" d="M55.4163 141.41C55.4163 141.41 49.8303 142.541 49.334 141.41L49.4575 140.604L55.4138 140.443L55.4163 141.41Z" fill="white"/>
<path opacity="0.5" d="M56.0362 158.201L57.0289 159.493V165.628L56.0362 166.92C56.0362 166.92 52.4382 168.535 50.0798 167.247L48.9636 165.795V159.647L49.9563 158.195L56.0362 158.201Z" fill="#9896B1"/>
<path opacity="0.2" d="M55.7892 159.647C55.7892 159.647 51.4454 160.938 49.9563 159.647V158.195H56.0361L55.7892 159.647Z" fill="white"/>
<path opacity="0.5" d="M53.6677 149.601V158.336C53.6534 158.682 53.5343 159.006 53.3364 159.239C53.1386 159.471 52.8781 159.591 52.612 159.575C52.3459 159.591 52.0854 159.471 51.8876 159.239C51.6897 159.006 51.5706 158.682 51.5563 158.336V149.601C51.565 149.416 51.6034 149.236 51.6689 149.071C51.7344 148.907 51.8256 148.763 51.9367 148.647C52.0477 148.531 52.1762 148.447 52.3137 148.399C52.4513 148.352 52.5949 148.343 52.7355 148.372C52.9801 148.391 53.2106 148.527 53.3827 148.754C53.5548 148.981 53.6563 149.282 53.6677 149.601Z" fill="#9896B1"/>
</g>
<g opacity="0.8">
<path opacity="0.8" d="M29.5248 193.078C29.5248 193.078 25.9545 191.505 24.2336 195.598C23.7802 196.708 23.5495 197.948 23.5627 199.205C23.5759 200.461 23.8327 201.693 24.3092 202.786C25.438 205.441 27.7636 208.885 32.1704 208.581C35.9095 208.322 37.1516 204.608 37.4893 201.157C37.6184 199.862 37.49 198.546 37.1162 197.335C36.7425 196.123 36.1359 195.057 35.3547 194.238C34.5734 193.418 33.6435 192.874 32.6541 192.656C31.6647 192.438 30.6488 192.554 29.7037 192.993L29.5248 193.078Z" fill="#9896B1"/>
<path opacity="0.1" d="M25.0676 203.15C24.5911 202.057 24.3343 200.825 24.3211 199.569C24.3079 198.312 24.5386 197.072 24.992 195.962C26.7104 191.868 30.2832 193.442 30.2832 193.442L30.4671 193.356C31.8283 192.716 33.3243 192.759 34.6623 193.478C33.9232 192.904 33.0954 192.551 32.2388 192.445C31.3821 192.338 30.518 192.481 29.7087 192.862L29.5248 192.947C29.5248 192.947 25.9545 191.373 24.2336 195.467C23.7802 196.577 23.5495 197.817 23.5627 199.074C23.5759 200.33 23.8327 201.562 24.3092 202.655C25.0651 204.402 26.3249 206.49 28.3406 207.627C26.9564 206.55 25.8247 205.002 25.0676 203.15Z" fill="white"/>
<path opacity="0.2" d="M27.6804 195.044C27.6804 195.044 29.0032 196.398 32.2157 195.044H27.6804Z" fill="black"/>
<path opacity="0.8" d="M27.3982 185.212C27.3982 185.212 29.6658 193.209 29.4794 195.3L31.2759 195.054C31.2759 195.054 28.2523 188.043 29.0082 185.222L27.3982 185.212Z" fill="#9896B1"/>
<path opacity="0.2" d="M27.3982 185.212C27.3982 185.212 29.6658 193.209 29.4794 195.3L31.2759 195.054C31.2759 195.054 28.2523 188.043 29.0082 185.222L27.3982 185.212Z" fill="black"/>
<path opacity="0.8" d="M36.6603 185.867C36.6603 185.867 33.0875 183.491 31.4901 185.454C29.8927 187.417 29.6458 192.435 29.6458 192.435C29.6458 192.435 35.4711 193.481 36.6603 185.867Z" fill="#9896B1"/>
<path opacity="0.1" d="M36.6603 185.867C36.6603 185.867 33.0875 183.491 31.4901 185.454C29.8927 187.417 29.6458 192.435 29.6458 192.435C29.6458 192.435 35.4711 193.481 36.6603 185.867Z" fill="white"/>
<path opacity="0.8" d="M29.6458 192.422C29.6458 192.422 30.583 186.598 36.6603 185.867" stroke="#9896B1" stroke-miterlimit="10"/>
</g>
<path d="M44.5971 200.318C44.5971 200.318 41.0268 198.745 39.3059 202.838C38.8525 203.948 38.6217 205.188 38.6349 206.445C38.6481 207.701 38.9049 208.933 39.3815 210.026C40.5103 212.681 42.8359 216.126 47.2427 215.821C50.9817 215.562 52.2239 211.848 52.5615 208.397C52.6907 207.103 52.5622 205.787 52.1885 204.575C51.8147 203.364 51.2082 202.297 50.4269 201.478C49.6457 200.659 48.7158 200.114 47.7264 199.896C46.7369 199.678 45.7211 199.794 44.776 200.233L44.5971 200.318Z" fill="#9896B1"/>
<path opacity="0.1" d="M40.1474 210.393C39.6709 209.3 39.4141 208.068 39.4009 206.812C39.3877 205.555 39.6185 204.315 40.0719 203.205C41.7902 199.112 45.363 200.685 45.363 200.685L45.547 200.6C46.9081 199.959 48.4042 200.002 49.7421 200.721C49.0031 200.148 48.1753 199.795 47.3186 199.688C46.462 199.582 45.5978 199.724 44.7886 200.105L44.6046 200.19C44.6046 200.19 41.0343 198.617 39.3135 202.711C38.8601 203.82 38.6293 205.061 38.6425 206.317C38.6557 207.573 38.9125 208.805 39.389 209.898C40.1449 211.645 41.4047 213.733 43.4204 214.87C42.0362 213.794 40.9045 212.245 40.1474 210.393Z" fill="white"/>
<path opacity="0.2" d="M42.7603 202.284C42.7603 202.284 44.083 203.638 47.2955 202.284H42.7603Z" fill="black"/>
<path d="M42.4756 192.445C42.4756 192.445 44.7432 200.442 44.5568 202.534L46.3533 202.288C46.3533 202.288 43.3297 195.277 44.0856 192.455L42.4756 192.445Z" fill="#9896B1"/>
<path opacity="0.2" d="M42.4756 192.445C42.4756 192.445 44.7432 200.442 44.5568 202.534L46.3533 202.288C46.3533 202.288 43.3297 195.277 44.0856 192.455L42.4756 192.445Z" fill="black"/>
<path d="M51.7402 193.111C51.7402 193.111 48.1674 190.734 46.5699 192.698C44.9725 194.661 44.7256 199.679 44.7256 199.679C44.7256 199.679 50.5509 200.721 51.7402 193.111Z" fill="#9896B1"/>
<path opacity="0.1" d="M51.7402 193.111C51.7402 193.111 48.1674 190.734 46.5699 192.698C44.9725 194.661 44.7256 199.679 44.7256 199.679C44.7256 199.679 50.5509 200.721 51.7402 193.111Z" fill="white"/>
<path d="M44.7256 199.679C44.7256 199.679 45.6629 193.855 51.7402 193.124" stroke="#9896B1" stroke-miterlimit="10"/>
<path d="M15.8735 181.334C15.8735 181.334 16.2238 180.826 15.5661 180.623V179.787H15.9617C15.9614 178.777 15.6945 177.797 15.2056 177.012C14.7167 176.227 14.0355 175.684 13.2758 175.474V174.461H13.3791V173.15H10.8343V174.461H10.9074V175.487C10.1578 175.708 9.48818 176.255 9.00842 177.036C8.52866 177.817 8.26718 178.787 8.26684 179.787H8.61958V180.59C8.61958 180.59 7.78308 181.105 8.61958 182.023C9.45609 182.94 9.32508 183.625 9.32508 183.625C9.32508 183.625 8.97233 185.343 8.26936 185.572V201.55C8.26936 202.492 8.55685 203.395 9.06859 204.06C9.58033 204.726 10.2744 205.1 10.9981 205.1H13.1549C13.8764 205.096 14.5675 204.721 15.077 204.057C15.5865 203.392 15.8729 202.492 15.8735 201.554V185.572C15.8735 185.572 14.6414 184.369 14.8657 183.625C15.1582 182.831 15.495 182.065 15.8735 181.334Z" fill="#9896B1"/>
</g>
</svg>
