<svg width="257" height="219" viewBox="0 0 257 219" fill="none" xmlns="http://www.w3.org/2000/svg">
<g clip-path="url(#clip0)">
<path d="M196.895 207.435L210.275 181.308L196.923 210.246L196.951 213.186C195.974 213.195 195.007 213.174 194.049 213.121L194.712 175.331L194.694 175.04L194.719 174.983L194.782 171.412L180.13 143.478L194.765 168.74L194.817 169.494L195.318 140.942L182.662 111.981L195.354 135.926L195.222 76.7739L195.222 76.577L195.226 76.7706L196.066 123.391L207.601 104.454L196.104 127.407L196.356 152.946L206.97 128.021L196.395 156.701L196.535 170.902L211.971 136.181L196.582 175.856L196.895 207.435Z" fill="#E6E6E6"/>
<path d="M241.925 208.258L255.305 182.131L241.952 211.068L241.98 214.008C241.003 214.018 240.036 213.997 239.078 213.944L239.742 176.154L239.723 175.862L239.748 175.806L239.811 172.235L225.159 144.301L239.794 169.562L239.846 170.317L240.347 141.765L227.691 112.804L240.383 136.749L240.251 77.5968L240.251 77.3999L240.256 77.5935L241.096 124.214L252.63 105.277L241.133 128.23L241.385 153.769L251.999 128.844L241.424 157.524L241.564 171.725L257 137.004L241.611 176.679L241.925 208.258Z" fill="#E6E6E6"/>
<path d="M106.564 0H26.4963V142.206H106.564V0Z" fill="#E6E6E6"/>
<path d="M103.742 5.01105H29.3177V137.195H103.742V5.01105Z" fill="white"/>
<path d="M93.9597 28.1956H39.3388C38.8963 28.1949 38.4722 27.9636 38.1596 27.5525C37.8469 27.1414 37.6713 26.5843 37.6713 26.0033C37.6713 25.4224 37.8469 24.8652 38.1596 24.4541C38.4722 24.0431 38.8963 23.8117 39.3388 23.811H93.9597C94.1792 23.8106 94.3965 23.867 94.5993 23.977C94.8022 24.087 94.9865 24.2485 95.1417 24.4521C95.297 24.6557 95.4202 24.8975 95.5042 25.1637C95.5883 25.4298 95.6315 25.7152 95.6315 26.0033C95.6315 26.2915 95.5883 26.5768 95.5042 26.8429C95.4202 27.1091 95.297 27.3509 95.1417 27.5545C94.9865 27.7582 94.8022 27.9196 94.5993 28.0296C94.3965 28.1396 94.1792 28.196 93.9597 28.1956Z" fill="#E6E6E6"/>
<path d="M93.9597 50.7454H39.3388C38.8963 50.7446 38.4722 50.5133 38.1596 50.1023C37.8469 49.6912 37.6713 49.134 37.6713 48.5531C37.6713 47.9721 37.8469 47.4149 38.1596 47.0039C38.4722 46.5928 38.8963 46.3615 39.3388 46.3607H93.9597C94.1792 46.3603 94.3965 46.4168 94.5993 46.5268C94.8022 46.6368 94.9865 46.7982 95.1417 47.0018C95.297 47.2054 95.4202 47.4472 95.5042 47.7134C95.5883 47.9796 95.6315 48.2649 95.6315 48.5531C95.6315 48.8412 95.5883 49.1265 95.5042 49.3927C95.4202 49.6589 95.297 49.9007 95.1417 50.1043C94.9865 50.3079 94.8022 50.4693 94.5993 50.5793C94.3965 50.6893 94.1792 50.7458 93.9597 50.7454Z" fill="#E6E6E6"/>
<path d="M93.9597 73.2952H39.3388C38.8963 73.2944 38.4722 73.0631 38.1596 72.652C37.8469 72.241 37.6713 71.6838 37.6713 71.1028C37.6713 70.5219 37.8469 69.9647 38.1596 69.5536C38.4722 69.1425 38.8963 68.9112 39.3388 68.9105H93.9597C94.1792 68.9101 94.3965 68.9665 94.5993 69.0765C94.8022 69.1865 94.9865 69.3479 95.1417 69.5516C95.297 69.7552 95.4202 69.997 95.5042 70.2632C95.5883 70.5293 95.6315 70.8147 95.6315 71.1028C95.6315 71.391 95.5883 71.6763 95.5042 71.9425C95.4202 72.2086 95.297 72.4504 95.1417 72.6541C94.9865 72.8577 94.8022 73.0191 94.5993 73.1291C94.3965 73.2391 94.1792 73.2955 93.9597 73.2952Z" fill="#E6E6E6"/>
<path d="M93.9597 95.8449H39.3388C38.8963 95.8441 38.4722 95.6128 38.1596 95.2017C37.8469 94.7907 37.6713 94.2335 37.6713 93.6525C37.6713 93.0716 37.8469 92.5144 38.1596 92.1033C38.4722 91.6923 38.8963 91.461 39.3388 91.4602H93.9597C94.1792 91.4598 94.3965 91.5162 94.5993 91.6263C94.8022 91.7363 94.9865 91.8977 95.1417 92.1013C95.297 92.3049 95.4202 92.5467 95.5042 92.8129C95.5883 93.0791 95.6315 93.3644 95.6315 93.6525C95.6315 93.9407 95.5883 94.226 95.5042 94.4922C95.4202 94.7584 95.297 95.0002 95.1417 95.2038C94.9865 95.4074 94.8022 95.5688 94.5993 95.6788C94.3965 95.7888 94.1792 95.8453 93.9597 95.8449Z" fill="#E6E6E6"/>
<path d="M93.9597 118.395H39.3388C38.8963 118.394 38.4722 118.163 38.1596 117.751C37.8469 117.34 37.6713 116.783 37.6713 116.202C37.6713 115.621 37.8469 115.064 38.1596 114.653C38.4722 114.242 38.8963 114.011 39.3388 114.01H93.9597C94.1792 114.01 94.3965 114.066 94.5993 114.176C94.8022 114.286 94.9865 114.447 95.1417 114.651C95.297 114.855 95.4202 115.096 95.5042 115.363C95.5883 115.629 95.6315 115.914 95.6315 116.202C95.6315 116.49 95.5883 116.776 95.5042 117.042C95.4202 117.308 95.297 117.55 95.1417 117.754C94.9865 117.957 94.8022 118.119 94.5993 118.229C94.3965 118.339 94.1792 118.395 93.9597 118.395Z" fill="#E6E6E6"/>
<path d="M84.4189 28.1956H39.1002C38.8808 28.196 38.6634 28.1396 38.4606 28.0296C38.2578 27.9196 38.0735 27.7582 37.9182 27.5545C37.7629 27.3509 37.6398 27.1091 37.5557 26.8429C37.4717 26.5768 37.4284 26.2915 37.4284 26.0033C37.4284 25.7152 37.4717 25.4298 37.5557 25.1637C37.6398 24.8975 37.7629 24.6557 37.9182 24.4521C38.0735 24.2485 38.2578 24.087 38.4606 23.977C38.6634 23.867 38.8808 23.8106 39.1002 23.811H84.4189C84.8614 23.8117 85.2855 24.0431 85.5981 24.4541C85.9108 24.8652 86.0864 25.4224 86.0864 26.0033C86.0864 26.5843 85.9108 27.1414 85.5981 27.5525C85.2855 27.9636 84.8614 28.1949 84.4189 28.1956Z" fill="#6C63FF"/>
<path d="M70.3463 50.7454H39.1002C38.6574 50.7454 38.2327 50.5144 37.9196 50.1033C37.6065 49.6921 37.4306 49.1345 37.4306 48.5531C37.4306 47.9716 37.6065 47.414 37.9196 47.0028C38.2327 46.5917 38.6574 46.3607 39.1002 46.3607H70.3463C70.5657 46.3603 70.7831 46.4168 70.9859 46.5268C71.1887 46.6368 71.373 46.7982 71.5283 47.0018C71.6836 47.2054 71.8068 47.4472 71.8908 47.7134C71.9749 47.9796 72.0181 48.2649 72.0181 48.5531C72.0181 48.8412 71.9749 49.1265 71.8908 49.3927C71.8068 49.6589 71.6836 49.9007 71.5283 50.1043C71.373 50.3079 71.1887 50.4693 70.9859 50.5793C70.7831 50.6893 70.5657 50.7458 70.3463 50.7454Z" fill="#6C63FF"/>
<path d="M53.1729 73.2952H39.1002C38.8808 73.2955 38.6634 73.2391 38.4606 73.1291C38.2578 73.0191 38.0735 72.8577 37.9182 72.6541C37.7629 72.4504 37.6398 72.2086 37.5557 71.9425C37.4717 71.6763 37.4284 71.391 37.4284 71.1028C37.4284 70.8147 37.4717 70.5293 37.5557 70.2632C37.6398 69.997 37.7629 69.7552 37.9182 69.5516C38.0735 69.3479 38.2578 69.1865 38.4606 69.0765C38.6634 68.9665 38.8808 68.9101 39.1002 68.9105H53.1729C53.6153 68.9112 54.0394 69.1425 54.3521 69.5536C54.6647 69.9647 54.8403 70.5219 54.8403 71.1028C54.8403 71.6838 54.6647 72.241 54.3521 72.652C54.0394 73.0631 53.6153 73.2944 53.1729 73.2952Z" fill="#6C63FF"/>
<path d="M88.7123 95.8449H39.1002C38.6574 95.8449 38.2327 95.6139 37.9196 95.2028C37.6065 94.7916 37.4306 94.234 37.4306 93.6525C37.4306 93.0711 37.6065 92.5135 37.9196 92.1023C38.2327 91.6912 38.6574 91.4602 39.1002 91.4602H88.7123C89.1551 91.4602 89.5798 91.6912 89.8929 92.1023C90.206 92.5135 90.3819 93.0711 90.3819 93.6525C90.3819 94.234 90.206 94.7916 89.8929 95.2028C89.5798 95.6139 89.1551 95.8449 88.7123 95.8449Z" fill="#6C63FF"/>
<path d="M77.7404 118.395H39.1002C38.8808 118.395 38.6634 118.339 38.4606 118.229C38.2578 118.119 38.0735 117.957 37.9182 117.754C37.7629 117.55 37.6398 117.308 37.5557 117.042C37.4717 116.776 37.4284 116.49 37.4284 116.202C37.4284 115.914 37.4717 115.629 37.5557 115.363C37.6398 115.096 37.7629 114.855 37.9182 114.651C38.0735 114.447 38.2578 114.286 38.4606 114.176C38.6634 114.066 38.8808 114.01 39.1002 114.01H77.7404C77.9598 114.01 78.1772 114.066 78.38 114.176C78.5828 114.286 78.7672 114.447 78.9224 114.651C79.0777 114.855 79.2009 115.096 79.2849 115.363C79.369 115.629 79.4122 115.914 79.4122 116.202C79.4122 116.49 79.369 116.776 79.2849 117.042C79.2009 117.308 79.0777 117.55 78.9224 117.754C78.7672 117.957 78.5828 118.119 78.38 118.229C78.1772 118.339 77.9598 118.395 77.7404 118.395Z" fill="#6C63FF"/>
<path d="M255.747 213.188H0V213.944H255.747V213.188Z" fill="#3F3D56"/>
<path d="M145.726 102.448C145.726 102.448 143.916 85.0171 140.899 89.7711C137.882 94.525 140.899 101.656 140.899 101.656L143.313 105.617L145.726 103.241V102.448Z" fill="#9F616A"/>
<path d="M152.967 107.994C152.967 107.994 146.933 99.2788 145.726 100.863C144.52 102.448 140.899 103.24 141.502 106.41C142.106 109.579 154.778 119.879 154.778 119.879L152.967 107.994Z" fill="#6C63FF"/>
<path opacity="0.1" d="M152.967 107.994C152.967 107.994 146.933 99.2788 145.726 100.863C144.52 102.448 140.899 103.24 141.502 106.41C142.106 109.579 154.778 119.879 154.778 119.879L152.967 107.994Z" fill="black"/>
<path d="M187.362 107.202V113.541C187.362 113.541 187.965 127.802 184.345 127.01C180.724 126.218 182.535 114.333 182.535 114.333L183.138 107.202L187.362 107.202Z" fill="#9F616A"/>
<path d="M185.552 153.157C185.552 153.157 190.982 164.249 192.793 165.041C194.603 165.834 204.257 172.965 205.464 180.095L213.912 194.357L209.688 201.488C209.688 201.488 190.379 174.549 184.948 172.172C179.518 169.795 174.087 157.911 174.087 157.911L185.552 153.157Z" fill="#9F616A"/>
<path d="M142.709 134.933C142.709 134.933 131.244 137.31 133.055 146.818C134.865 156.326 152.364 176.134 152.364 176.134L152.967 180.888L159.605 182.472L162.622 178.511L162.019 176.134C162.019 176.134 154.778 167.418 154.174 164.249C153.571 161.08 146.933 148.403 143.916 147.61L148.14 144.441L142.709 134.933Z" fill="#9F616A"/>
<path d="M212.102 194.357C212.102 194.357 209.688 189.603 213.309 190.396C216.929 191.188 219.343 191.98 219.343 195.15C219.343 198.319 216.326 220.504 212.705 218.919C209.085 217.334 212.102 210.204 212.102 210.204C212.102 210.204 210.292 203.865 209.085 203.073C207.878 202.28 207.878 198.319 209.085 198.319C210.292 198.319 212.705 195.942 212.102 194.357Z" fill="#2F2E41"/>
<path d="M160.812 176.926C160.812 176.926 160.812 172.965 163.225 176.926C165.639 180.888 166.846 184.057 164.432 186.434C162.019 188.811 153.571 194.357 153.571 194.357C153.571 194.357 144.52 196.734 145.726 191.188C145.726 191.188 151.761 187.226 151.761 184.057C151.761 180.888 151.761 175.342 153.571 176.926C155.381 178.511 160.812 179.303 160.812 176.926Z" fill="#2F2E41"/>
<path d="M172.277 117.502C172.277 117.502 180.724 119.087 180.121 134.933C180.121 134.933 190.982 149.195 187.965 153.949C184.948 158.703 178.311 167.418 175.897 165.041C173.483 162.664 166.242 144.441 166.242 144.441C166.242 144.441 149.347 152.364 146.33 148.403C143.313 144.441 140.296 134.933 140.296 134.933L155.381 124.633L172.277 117.502Z" fill="#2F2E41"/>
<path d="M148.743 72.34C152.743 72.34 155.984 68.0832 155.984 62.8322C155.984 57.5812 152.743 53.3243 148.743 53.3243C144.744 53.3243 141.503 57.5812 141.503 62.8322C141.503 68.0832 144.744 72.34 148.743 72.34Z" fill="#9F616A"/>
<path d="M154.174 63.6245C154.174 63.6245 158.398 72.34 159.605 73.1323C160.812 73.9247 151.157 81.8479 151.157 81.8479C151.157 81.8479 151.157 71.5477 148.14 69.1707L154.174 63.6245Z" fill="#9F616A"/>
<path d="M154.778 72.34C154.778 72.34 164.432 68.3784 166.242 74.717C168.053 81.0555 172.277 92.9403 171.673 100.864C171.07 108.787 169.863 107.202 171.673 109.579C173.483 111.956 174.69 110.371 174.087 113.541C173.483 116.71 172.88 116.71 173.483 118.295C174.087 119.879 166.242 125.425 159.605 126.218L152.967 127.01C152.967 127.01 152.967 112.748 151.761 109.579C150.554 106.41 148.14 100.071 148.14 97.6942V91.405C148.14 87.219 148.972 83.1054 150.554 79.4709C150.554 79.4709 154.174 72.34 154.778 72.34Z" fill="#6C63FF"/>
<path d="M162.019 75.5093C162.019 75.5093 184.345 77.8863 186.758 85.8095C189.172 93.7327 190.379 109.579 187.965 109.579C185.552 109.579 182.535 111.164 181.931 109.579C181.328 107.994 178.914 92.148 178.311 92.148C177.707 92.148 159.605 89.7711 159.605 89.7711C159.605 89.7711 151.76 77.094 162.019 75.5093Z" fill="#6C63FF"/>
<path d="M148.453 60.4751C148.453 60.4751 146.531 56.0904 144.129 59.8989C141.727 63.7074 137.82 56.7086 138.42 55.2152C139.019 53.7218 141.138 55.2823 144.768 53.7241C148.398 52.1659 155.391 48.9916 156.562 59.3464C157.733 69.7013 154.944 68.6157 154.944 68.6157C154.944 68.6157 153.665 59.4402 152.51 62.0758L151.354 64.7114L150.352 65.0353L148.453 60.4751Z" fill="#2F2E41"/>
</g>
<defs>
<clipPath id="clip0">
<rect width="257" height="219" fill="white"/>
</clipPath>
</defs>
</svg>
