<svg width="22" height="22" viewBox="0 0 22 22" fill="none" xmlns="http://www.w3.org/2000/svg">
<path d="M20.1667 0.5H1.83333C0.821181 0.5 0 1.50781 0 2.75V19.25C0 20.4922 0.821181 21.5 1.83333 21.5H20.1667C21.1788 21.5 22 20.4922 22 19.25V2.75C22 1.50781 21.1788 0.5 20.1667 0.5ZM6.72222 5C8.07049 5 9.16667 6.34531 9.16667 8C9.16667 9.65469 8.07049 11 6.72222 11C5.37396 11 4.27778 9.65469 4.27778 8C4.27778 6.34531 5.37396 5 6.72222 5ZM11 16.1C11 16.5969 10.6181 17 10.1444 17H3.3C2.82639 17 2.44444 16.5969 2.44444 16.1V15.2C2.44444 13.7094 3.5941 12.5 5.01111 12.5H5.20208C5.67187 12.7391 6.18368 12.875 6.72222 12.875C7.26076 12.875 7.77639 12.7391 8.24236 12.5H8.43333C9.85035 12.5 11 13.7094 11 15.2V16.1ZM19.5556 13.625C19.5556 13.8313 19.4181 14 19.25 14H13.75C13.5819 14 13.4444 13.8313 13.4444 13.625V12.875C13.4444 12.6687 13.5819 12.5 13.75 12.5H19.25C19.4181 12.5 19.5556 12.6687 19.5556 12.875V13.625ZM19.5556 10.625C19.5556 10.8313 19.4181 11 19.25 11H13.75C13.5819 11 13.4444 10.8313 13.4444 10.625V9.875C13.4444 9.66875 13.5819 9.5 13.75 9.5H19.25C19.4181 9.5 19.5556 9.66875 19.5556 9.875V10.625ZM19.5556 7.625C19.5556 7.83125 19.4181 8 19.25 8H13.75C13.5819 8 13.4444 7.83125 13.4444 7.625V6.875C13.4444 6.66875 13.5819 6.5 13.75 6.5H19.25C19.4181 6.5 19.5556 6.66875 19.5556 6.875V7.625Z" fill="white"/>
</svg>
