<svg width="22" height="22" viewBox="0 0 22 22" fill="none" xmlns="http://www.w3.org/2000/svg">
<path d="M6.6 11C8.72781 11 10.45 8.65156 10.45 5.75C10.45 2.84844 8.72781 0.5 6.6 0.5C4.47219 0.5 2.75 2.84844 2.75 5.75C2.75 8.65156 4.47219 11 6.6 11ZM9.24 12.5H8.95469C8.23969 12.9688 7.44563 13.25 6.6 13.25C5.75438 13.25 4.96375 12.9688 4.24531 12.5H3.96C1.77375 12.5 0 14.9188 0 17.9V19.25C0 20.4922 0.739063 21.5 1.65 21.5H11.55C12.4609 21.5 13.2 20.4922 13.2 19.25V17.9C13.2 14.9188 11.4262 12.5 9.24 12.5ZM16.5 11C18.3219 11 19.8 8.98438 19.8 6.5C19.8 4.01562 18.3219 2 16.5 2C14.6781 2 13.2 4.01562 13.2 6.5C13.2 8.98438 14.6781 11 16.5 11ZM18.15 12.5H18.0194C17.5416 12.725 17.0363 12.875 16.5 12.875C15.9638 12.875 15.4584 12.725 14.9806 12.5H14.85C14.1488 12.5 13.5025 12.7766 12.9353 13.2219C13.7741 14.4547 14.3 16.0906 14.3 17.9V19.7C14.3 19.8031 14.2828 19.9016 14.2794 20H20.35C21.2609 20 22 18.9922 22 17.75C22 14.8484 20.2778 12.5 18.15 12.5V12.5Z" fill="white"/>
</svg>
