<svg width="22" height="21" viewBox="0 0 22 21" fill="none" xmlns="http://www.w3.org/2000/svg">
<path d="M20.1667 0H1.83333C0.821181 0 0 1.00781 0 2.25V18.75C0 19.9922 0.821181 21 1.83333 21H20.1667C21.1788 21 22 19.9922 22 18.75V2.25C22 1.00781 21.1788 0 20.1667 0ZM6.72222 4.5C8.07049 4.5 9.16667 5.84531 9.16667 7.5C9.16667 9.15469 8.07049 10.5 6.72222 10.5C5.37396 10.5 4.27778 9.15469 4.27778 7.5C4.27778 5.84531 5.37396 4.5 6.72222 4.5ZM11 15.6C11 16.0969 10.6181 16.5 10.1444 16.5H3.3C2.82639 16.5 2.44444 16.0969 2.44444 15.6V14.7C2.44444 13.2094 3.5941 12 5.01111 12H5.20208C5.67187 12.2391 6.18368 12.375 6.72222 12.375C7.26076 12.375 7.77639 12.2391 8.24236 12H8.43333C9.85035 12 11 13.2094 11 14.7V15.6ZM19.5556 13.125C19.5556 13.3313 19.4181 13.5 19.25 13.5H13.75C13.5819 13.5 13.4444 13.3313 13.4444 13.125V12.375C13.4444 12.1687 13.5819 12 13.75 12H19.25C19.4181 12 19.5556 12.1687 19.5556 12.375V13.125ZM19.5556 10.125C19.5556 10.3313 19.4181 10.5 19.25 10.5H13.75C13.5819 10.5 13.4444 10.3313 13.4444 10.125V9.375C13.4444 9.16875 13.5819 9 13.75 9H19.25C19.4181 9 19.5556 9.16875 19.5556 9.375V10.125ZM19.5556 7.125C19.5556 7.33125 19.4181 7.5 19.25 7.5H13.75C13.5819 7.5 13.4444 7.33125 13.4444 7.125V6.375C13.4444 6.16875 13.5819 6 13.75 6H19.25C19.4181 6 19.5556 6.16875 19.5556 6.375V7.125Z" fill="#CDC9C9"/>
</svg>
