<svg width="15" height="16" viewBox="0 0 15 16" fill="none" xmlns="http://www.w3.org/2000/svg">
<path d="M14.4647 13.833L11.609 10.7177C11.4801 10.5771 11.3054 10.499 11.1221 10.499H10.6552C11.4458 9.39596 11.9155 8.00859 11.9155 6.49937C11.9155 2.90909 9.24884 0 5.95775 0C2.66667 0 0 2.90909 0 6.49937C0 10.0896 2.66667 12.9987 5.95775 12.9987C7.34121 12.9987 8.61296 12.4863 9.62406 11.6239V12.1332C9.62406 12.3332 9.69567 12.5238 9.82456 12.6644L12.6803 15.7797C12.9495 16.0734 13.3849 16.0734 13.6513 15.7797L14.4619 14.8954C14.7311 14.6017 14.7311 14.1267 14.4647 13.833ZM5.95775 10.499C3.93269 10.499 2.29144 8.71165 2.29144 6.49937C2.29144 4.29021 3.92982 2.49976 5.95775 2.49976C7.98281 2.49976 9.62406 4.28708 9.62406 6.49937C9.62406 8.70852 7.98568 10.499 5.95775 10.499Z" fill="black" fill-opacity="0.6"/>
</svg>
